<svg xmlns="http://www.w3.org/2000/svg" viewBox="0 0 1120 260" fill="none" role="img" aria-labelledby="title">
<title>AI Ledger logo</title>

<defs>
  <linearGradient id="brandGradient" x1="0" y1="0" x2="1" y2="1">
    <stop offset="0%" stop-color="#00D4FF"/>
    <stop offset="28%" stop-color="#0099FF"/>
    <stop offset="56%" stop-color="#4C68FF"/>
    <stop offset="78%" stop-color="#7A38FF"/>
    <stop offset="100%" stop-color="#A854FF"/>
  </linearGradient>
</defs>


<g transform="translate(10 10)" stroke="url(#brandGradient)" stroke-width="11" stroke-linecap="round" stroke-linejoin="round">

<path d="M120 22 L198 67 L198 157 L120 202 L42 157 L42 67 Z"/>
<path d="M120 55 V128"/>
<path d="M86 74 L105 93 V128"/>
<path d="M154 74 L135 93 V128"/>
<path d="M70 105 H100"/>
<path d="M170 105 H140"/>
<path d="M76 140 H104"/>
<path d="M164 140 H136"/>
<circle cx="120" cy="55" r="7"/>
<circle cx="86" cy="74" r="7"/>
<circle cx="154" cy="74" r="7"/>
<circle cx="70" cy="105" r="7"/>
<circle cx="170" cy="105" r="7"/>
<circle cx="76" cy="140" r="7"/>
<circle cx="164" cy="140" r="7"/>
<circle cx="120" cy="184" r="34" fill="#071120"/>
<path d="M101 184 L115 198 L141 168"/>

</g>
<text x="292" y="145" fill="#FFFFFF" font-family="Plus Jakarta Sans, Inter, Arial, sans-serif" font-size="104" font-weight="700">AI Ledger</text>
<text x="298" y="198" fill="#A7B6CD" font-family="Plus Jakarta Sans, Inter, Arial, sans-serif" font-size="25" letter-spacing="8">GOVERNANCE. EVIDENCE. TRUST.</text>
</svg>